<?xml version="1.0" encoding="UTF-8"?><svg xmlns="http://www.w3.org/2000/svg" xmlns:xlink="http://www.w3.org/1999/xlink" width="319" height="405" viewBox="-0.5 -0.5 319 405" ><style><![CDATA[.B{pointer-events:all}.C{fill:#b0b0b0}.D{font-family:Helvetica}.E{font-size:12px}.F{text-anchor:middle}.G{fill:none}.H{pointer-events:stroke}.I{stroke:#b0b0b0}.J{stroke-miterlimit:10}]]></style><g class="I J"><path d="M97 41v20-10 13.63" class="G H"/><use xlink:href="#B" class="B C"/></g><ellipse cx="97" cy="21" rx="50" ry="20" fill="#e3c800" class="B"/><text x="96.5" y="24.5" fill="#000" class="D E F">Start</text><g class="I J"><path d="M97 221v43.63" class="G H"/><use xlink:href="#B" y="200" class="B C"/><path d="M147 186h63.63" class="G H"/><path d="M215.88 186l-7 3.5 1.75-3.5-1.75-3.5z" class="B C"/></g><path d="M97 151l50 35-50 35-50-35z" fill="#d80073" class="B"/><text x="96.5" y="189.5" fill="#fff" class="D E F">Condition</text><g class="I J"><path d="M97 116v20-5 13.63" class="G H"/><use xlink:href="#B" y="80" class="B C"/></g><rect x="47" y="71" width="100" height="45" rx="7" fill="#1ba1e2" class="B"/><text x="96.5" y="96.5" fill="#fff" class="D E F">Initializer</text><path d="M247.61 163.5h38.78c16.9 0 30.61 10.07 30.61 22.5s-13.71 22.5-30.61 22.5h-38.78c-16.9 0-30.61-10.07-30.61-22.5s13.71-22.5 30.61-22.5z" fill="#e3c800" class="B"/><text x="266.5" y="189.5" fill="#000" class="D E F">End</text><g class="I J"><path d="M97 316v36.63" class="G H"/><use xlink:href="#B" y="288" class="B C"/></g><rect x="47" y="271" width="100" height="45" rx="7" fill="#60a917" class="B"/><text x="96.5" y="296.5" fill="#fff" class="D E F">Statement</text><g class="I J"><path d="M47 381.5H7V186h33.63" class="G H"/><path d="M45.88 186l-7 3.5 1.75-3.5-1.75-3.5z" class="B C"/></g><rect x="47" y="359" width="100" height="45" rx="7" fill="#1ba1e2" class="B"/><text x="96.5" y="384.5" fill="#fff" class="D E F">Iterator</text><text x="120.5" y="244.5" class="C D E F">true</text><text x="181.5" y="180.5" class="C D E F">false</text><defs ><path id="B" d="M97 69.88l-3.5-7 3.5 1.75 3.5-1.75z"/></defs></svg>