<?xml version="1.0" encoding="UTF-8"?><svg xmlns="http://www.w3.org/2000/svg" width="195" height="342" viewBox="-0.5 -0.5 195 342" ><style><![CDATA[.B{pointer-events:all}.C{fill:#b0b0b0}.D{font-family:Helvetica}.E{font-size:12px}.F{text-anchor:middle}.G{pointer-events:stroke}.H{stroke:#b0b0b0}.I{stroke-miterlimit:10}]]></style><g class="H I"><path d="M51 41v33.63" fill="none" class="G"/><path d="M51 79.88l-3.5-7 3.5 1.75 3.5-1.75z" class="B C"/></g><ellipse cx="51" cy="21" rx="50" ry="20" fill="#e3c800" class="B"/><text x="50.5" y="24.5" fill="#000" class="D E F">Start</text><g class="H I"><path d="M101 216h50V103.5h-43.63" fill="none" class="G"/><path d="M102.12 103.5l7-3.5-1.75 3.5 1.75 3.5z" class="B C"/><path d="M51 251v38.63" fill="none" class="G"/><path d="M51 294.88l-3.5-7 3.5 1.75 3.5-1.75z" class="B C"/></g><path d="M51 181l50 35-50 35-50-35z" fill="#d80073" class="B"/><text x="50.5" y="219.5" fill="#fff" class="D E F">Condition</text><g class="H I"><path d="M51 126v48.63" fill="none" class="G"/><path d="M51 179.88l-3.5-7 3.5 1.75 3.5-1.75z" class="B C"/></g><rect x="1" y="81" width="100" height="45" rx="7" fill="#1ba1e2" class="B"/><text x="50.5" y="106.5" fill="#fff" class="D E F">Statements</text><path d="M31.61 296h38.78c16.9 0 30.61 10.07 30.61 22.5S87.29 341 70.39 341H31.61C14.71 341 1 330.93 1 318.5S14.71 296 31.61 296z" fill="#e3c800" class="B"/><text x="50.5" y="321.5" fill="#000" class="D E F">End</text><text x="173.5" y="169.5" class="C D E F">true</text><text x="80.5" y="274.5" class="C D E F">false</text></svg>