<?xml version="1.0" encoding="UTF-8"?><svg xmlns="http://www.w3.org/2000/svg" width="208" height="354" viewBox="-0.5 -0.5 208 354" ><style><![CDATA[.B{pointer-events:all}.C{fill:#b0b0b0}.D{font-family:Helvetica}.E{font-size:12px}.F{text-anchor:middle}.G{pointer-events:stroke}.H{stroke:#b0b0b0}.I{stroke-miterlimit:10}]]></style><g class="H I"><path d="M97 41v34.63" fill="none" class="G"/><path d="M97 80.88l-3.5-7 3.5 1.75 3.5-1.75z" class="B C"/></g><ellipse cx="97" cy="21" rx="50" ry="20" fill="#e3c800" class="B"/><text x="96.5" y="24.5" fill="#000" class="D E F">Start</text><g class="H I"><path d="M147 117h51v212.57l-44.63-.06" fill="none" class="G"/><path d="M148.12 329.5l7-3.49-1.75 3.5 1.74 3.5z" class="B C"/><path d="M97 152v43.63" fill="none" class="G"/><path d="M97 200.88l-3.5-7 3.5 1.75 3.5-1.75z" class="B C"/></g><path d="M97 82l50 35-50 35-50-35z" fill="#d80073" class="B"/><text x="96.5" y="120.5" fill="#fff" class="D E F">Condition</text><g class="H I"><path d="M47 224.5l-40 .07V117h33.63" fill="none" class="G"/><path d="M45.88 117l-7 3.5 1.75-3.5-1.75-3.5z" class="B C"/></g><rect x="47" y="202" width="100" height="45" rx="7" fill="#1ba1e2" class="B"/><text x="96.5" y="227.5" fill="#fff" class="D E F">Statements</text><path d="M77.61 307h38.78c16.9 0 30.61 10.07 30.61 22.5S133.29 352 116.39 352H77.61C60.71 352 47 341.93 47 329.5S60.71 307 77.61 307z" fill="#e3c800" class="B"/><text x="96.5" y="332.5" fill="#000" class="D E F">End</text><text x="175.5" y="109.5" class="C D E F">false</text><text x="118.5" y="176.5" class="C D E F">true</text></svg>