<?xml version="1.0" encoding="UTF-8"?><svg xmlns="http://www.w3.org/2000/svg" xmlns:xlink="http://www.w3.org/1999/xlink" width="377" height="629" viewBox="-0.5 -0.5 377 629" ><style><![CDATA[.B{pointer-events:all}.C{fill:#b0b0b0}.D{font-family:Helvetica}.E{font-size:12px}.F{text-anchor:middle}.G{fill:none}.H{pointer-events:stroke}.I{stroke:#b0b0b0}.J{stroke-miterlimit:10}.K{fill:#fff}.L{fill:#1ba1e2}.M{fill:#d80073}]]></style><g class="I J"><path d="M51 41v20-11 13.63" class="G H"/><use xlink:href="#B" class="B C"/></g><ellipse cx="51" cy="21" rx="50" ry="20" fill="#e3c800" class="B"/><text x="50.5" y="24.5" fill="#000" class="D E F">Start</text><g class="I J"><path d="M101 185h64.63" class="G H"/><use xlink:href="#C" class="B C"/><path d="M51 220v39.63" class="G H"/><use xlink:href="#B" y="196" class="B C"/></g><path d="M51 150l50 35-50 35-50-35z" class="B M"/><text x="50.5" y="188.5" class="D E F K">value1</text><g class="I J"><path d="M272 185h96v421H107.37" class="G H"/><use xlink:href="#D" class="B C"/></g><rect x="172" y="162.5" width="100" height="45" rx="7" class="B L"/><text x="221.5" y="188.5" class="D E F K">statement1</text><path d="M31.61 583h38.78c16.9 0 30.61 10.07 30.61 22.5S87.29 628 70.39 628H31.61C14.71 628 1 617.93 1 605.5S14.71 583 31.61 583z" fill="#e3c800" class="B"/><text x="50.5" y="608.5" fill="#000" class="D E F">End</text><g class="I J"><path d="M101 301h64.63" class="G H"/><use xlink:href="#C" y="116" class="B C"/><path d="M51 336v38.63" class="G H"/><use xlink:href="#B" y="311" class="B C"/></g><path d="M51 266l50 35-50 35-50-35z" class="B M"/><text x="50.5" y="304.5" class="D E F K">value2</text><g class="I J"><path d="M101 416h66.63" class="G H"/><use xlink:href="#C" x="2" y="231" class="B C"/><path d="M51 451v43.63" class="G H"/><use xlink:href="#B" y="431" class="B C"/></g><path d="M51 381l50 35-50 35-50-35z" class="B M"/><text x="50.5" y="419.5" class="D E F K">value3</text><g class="I J"><path d="M272 301h96v305H107.37" class="G H"/><use xlink:href="#D" class="B C"/></g><rect x="172" y="278.5" width="100" height="45" rx="7" class="B L"/><text x="221.5" y="304.5" class="D E F K">statement2</text><g class="I J"><path d="M274 416h94v190H107.37" class="G H"/><use xlink:href="#D" class="B C"/></g><rect x="174" y="393.5" width="100" height="45" rx="7" class="B L"/><text x="223.5" y="419.5" class="D E F K">statement3</text><g class="I J"><path d="M51 546v20-3 13.63" class="G H"/><use xlink:href="#B" y="513" class="B C"/><path d="M101 523.5h66.63" class="G H"/><use xlink:href="#C" x="2" y="338.5" class="B C"/></g><rect x="1" y="501" width="100" height="45" rx="7" fill="#b1ddf0" class="B"/><text x="50.5" y="526.5" fill="#000" class="D E F">default</text><g class="I J"><path d="M274 523.43h94v82.14l-260.63-.07" class="G H"/><use xlink:href="#D" y="-0.5" class="B C"/></g><rect x="174" y="501" width="100" height="45" rx="7" class="B L"/><text x="223.5" y="526.5" class="D E F K">statement</text><g class="I J"><path d="M51 115v20-5 13.63" class="G H"/><use xlink:href="#B" y="80" class="B C"/></g><rect x="1" y="70" width="100" height="45" rx="7" class="B L"/><text x="50.5" y="95.5" class="D E F K">Eval expression</text><text x="133.5" y="178.5" class="C D E F">true</text><text x="136.5" y="294.5" class="C D E F">true</text><text x="136.5" y="406.5" class="C D E F">true</text><text x="69.5" y="359.5" class="C D E F">false</text><text x="69.5" y="242.5" class="C D E F">false</text><defs ><path id="B" d="M51 68.88l-3.5-7 3.5 1.75 3.5-1.75z"/><path id="C" d="M170.88 185l-7 3.5 1.75-3.5-1.75-3.5z"/><path id="D" d="M102.12 606l7-3.5-1.75 3.5 1.75 3.5z"/></defs></svg>