<?xml version="1.0" encoding="UTF-8"?><svg xmlns="http://www.w3.org/2000/svg" width="161" height="353" viewBox="-0.5 -0.5 161 353" ><style><![CDATA[.B{pointer-events:all}.C{fill:#b0b0b0}.D{font-family:Helvetica}.E{font-size:12px}.F{text-anchor:middle}.G{pointer-events:stroke}.H{stroke:#b0b0b0}.I{stroke-miterlimit:10}]]></style><g class="H I"><path d="M51 41v34.63" fill="none" class="G"/><path d="M51 80.88l-3.5-7 3.5 1.75 3.5-1.75z" class="B C"/></g><ellipse cx="51" cy="21" rx="50" ry="20" fill="#e3c800" class="B"/><text x="50.5" y="24.5" fill="#000" class="D E F">Start</text><g class="H I"><path d="M101 117h51v212.5h-44.63" fill="none" class="G"/><path d="M102.12 329.5l7-3.5-1.75 3.5 1.75 3.5z" class="B C"/><path d="M51 152v43.63" fill="none" class="G"/><path d="M51 200.88l-3.5-7 3.5 1.75 3.5-1.75z" class="B C"/></g><path d="M51 82l50 35-50 35-50-35z" fill="#d80073" class="B"/><text x="50.5" y="120.5" fill="#fff" class="D E F">Condition</text><g class="H I"><path d="M51 247v53.63" fill="none" class="G"/><path d="M51 305.88l-3.5-7 3.5 1.75 3.5-1.75z" class="B C"/></g><rect x="1" y="202" width="100" height="45" rx="7" fill="#1ba1e2" class="B"/><text x="50.5" y="227.5" fill="#fff" class="D E F">If block</text><path d="M31.61 307h38.78c16.9 0 30.61 10.07 30.61 22.5S87.29 352 70.39 352H31.61C14.71 352 1 341.93 1 329.5S14.71 307 31.61 307z" fill="#e3c800" class="B"/><text x="50.5" y="332.5" fill="#000" class="D E F">End</text><text x="72.5" y="178.5" class="C D E F">true</text><text x="123.5" y="107.5" class="C D E F">false</text></svg>