<?xml version="1.0" encoding="UTF-8"?><svg xmlns="http://www.w3.org/2000/svg" xmlns:xlink="http://www.w3.org/1999/xlink" width="377" height="551" viewBox="-0.5 -0.5 377 551" ><style><![CDATA[.B{pointer-events:all}.C{fill:#b0b0b0}.D{font-family:Helvetica}.E{font-size:12px}.F{text-anchor:middle}.G{fill:none}.H{pointer-events:stroke}.I{stroke:#b0b0b0}.J{stroke-miterlimit:10}.K{fill:#fff}.L{fill:#1ba1e2}.M{fill:#d80073}]]></style><g class="I J"><path d="M51 41v20" class="G H"/><use xlink:href="#B" class="B C"/></g><ellipse cx="51" cy="21" rx="50" ry="20" fill="#e3c800" class="B"/><text x="50.5" y="24.5" fill="#000" class="D E F">Start</text><g class="I J"><path d="M101 102h64.63" class="G H"/><use xlink:href="#C" class="B C"/><path d="M51 137v39.63" class="G H"/><use xlink:href="#B" y="116" class="B C"/></g><path d="M51 67l50 35-50 35-50-35z" class="B M"/><text x="50.5" y="105.5" class="D E F K">Condition1</text><g class="I J"><path d="M272 102h96v425.5H107.37" class="G H"/><use xlink:href="#D" class="B C"/></g><rect x="172" y="79.5" width="100" height="45" rx="7" class="B L"/><text x="221.5" y="105.5" class="D E F K">If Block</text><path d="M31.61 505h38.78c16.9 0 30.61 10.07 30.61 22.5S87.29 550 70.39 550H31.61C14.71 550 1 539.93 1 527.5S14.71 505 31.61 505z" fill="#e3c800" class="B"/><text x="50.5" y="530.5" fill="#000" class="D E F">End</text><g class="I J"><path d="M101 218h64.63" class="G H"/><use xlink:href="#C" y="116" class="B C"/><path d="M51 253v38.63" class="G H"/><use xlink:href="#B" y="231" class="B C"/></g><path d="M51 183l50 35-50 35-50-35z" class="B M"/><text x="50.5" y="221.5" class="D E F K">Condition2</text><g class="I J"><path d="M101 333h66.63" class="G H"/><use xlink:href="#C" x="2" y="231" class="B C"/><path d="M51 368v45.63" class="G H"/><use xlink:href="#B" y="353" class="B C"/></g><path d="M51 298l50 35-50 35-50-35z" class="B M"/><text x="50.5" y="336.5" class="D E F K">Condition3</text><g class="I J"><path d="M272 218h96v309.5H107.37" class="G H"/><use xlink:href="#D" class="B C"/></g><rect x="172" y="195.5" width="100" height="45" rx="7" class="B L"/><text x="221.5" y="221.5" class="D E F K">Else If Block</text><g class="I J"><path d="M274 333h94v194.5H107.37" class="G H"/><use xlink:href="#D" class="B C"/></g><rect x="174" y="310.5" width="100" height="45" rx="7" class="B L"/><text x="223.5" y="336.5" class="D E F K">Else If Block</text><g class="I J"><path d="M51 465v33.63" class="G H"/><use xlink:href="#B" y="438" class="B C"/></g><rect x="1" y="420" width="100" height="45" rx="7" class="B L"/><text x="50.5" y="445.5" class="D E F K">Else Block</text><text x="71.5" y="159.5" class="C D E F">false</text><text x="71.5" y="278.5" class="C D E F">false</text><text x="71.5" y="391.5" class="C D E F">false</text><text x="133.5" y="323.5" class="C D E F">true</text><text x="133.5" y="208.5" class="C D E F">true</text><text x="133.5" y="92.5" class="C D E F">true</text><defs ><path id="B" d="M51 65.88l-3.5-7 3.5 1.75 3.5-1.75z"/><path id="C" d="M170.88 102l-7 3.5 1.75-3.5-1.75-3.5z"/><path id="D" d="M102.12 527.5l7-3.5-1.75 3.5 1.75 3.5z"/></defs></svg>