<?xml version="1.0" encoding="UTF-8"?><svg xmlns="http://www.w3.org/2000/svg" xmlns:xlink="http://www.w3.org/1999/xlink" width="218" height="500" viewBox="-0.5 -0.5 218 500" ><style><![CDATA[.B{pointer-events:all}.C{fill:#b0b0b0}.D{font-family:Helvetica}.E{font-size:12px}.F{text-anchor:middle}.G{fill:none}.H{pointer-events:stroke}.I{stroke:#b0b0b0}.J{stroke-miterlimit:10}]]></style><g class="I J"><path d="M108 41v33.63" class="G H"/><use xlink:href="#B" class="B C"/></g><ellipse cx="108" cy="21" rx="50" ry="20" fill="#e3c800" class="B"/><text x="107.5" y="24.5" fill="#000" class="D E F">Start</text><g class="I J"><path d="M158 376l50 1.06V103.53l-43.63-.03" class="G H"/><path d="M159.12 103.5l7-3.5-1.75 3.5 1.75 3.5z" class="B C"/><path d="M108 411v36.63" class="G H"/><use xlink:href="#B" y="373" class="B C"/></g><path d="M108 341l50 35-50 35-50-35z" fill="#d80073" class="B"/><text x="107.5" y="379.5" fill="#fff" class="D E F">Condition</text><g class="I J"><path d="M108 126v20-4 13.63" class="G H"/><use xlink:href="#B" y="81" class="B C"/></g><rect x="58" y="81" width="100" height="45" rx="7" fill="#1ba1e2" class="B"/><text x="107.5" y="106.5" fill="#fff" class="D E F">Statements</text><path d="M88.61 454h38.78c16.9 0 30.61 10.07 30.61 22.5S144.29 499 127.39 499H88.61C71.71 499 58 488.93 58 476.5S71.71 454 88.61 454z" fill="#e3c800" class="B"/><text x="107.5" y="479.5" fill="#000" class="D E F">End</text><text x="179.5" y="371.5" class="C D E F">true</text><text x="127.5" y="433.5" class="C D E F">false</text><g class="I J"><path d="M108 314v20-12.94 13.57" class="G H"/><use xlink:href="#B" y="260" class="B C"/></g><rect x="58" y="269" width="100" height="45" rx="7" fill="#1ba1e2" class="B"/><text x="107.5" y="294.5" fill="#fff" class="D E F">Statements</text><g class="I J"><path d="M58 197l-50.94.06v180h44.57" class="G H"/><path d="M56.88 377.06l-7 3.5 1.75-3.5-1.75-3.5z" class="B C"/><path d="M108 232v20-2.94 13.57" class="G H"/><use xlink:href="#B" y="188" class="B C"/></g><path d="M108 162l50 35-50 35-50-35z" fill="#d80073" class="B"/><text x="107.5" y="200.5" fill="#fff" class="D E F">continue</text><text x="30.5" y="189.5" class="C D E F">Yes</text><text x="127.5" y="251.5" class="C D E F">No</text><defs ><path id="B" d="M108 79.88l-3.5-7 3.5 1.75 3.5-1.75z"/></defs></svg>