<?xml version="1.0" encoding="UTF-8"?><svg xmlns="http://www.w3.org/2000/svg" xmlns:xlink="http://www.w3.org/1999/xlink" width="156" height="469" viewBox="-0.5 -0.5 156 469" ><style><![CDATA[.B{pointer-events:all}.C{fill:#b0b0b0}.D{font-family:Helvetica}.E{font-size:12px}.F{text-anchor:middle}.G{fill:none}.H{pointer-events:stroke}.I{stroke:#b0b0b0}.J{stroke-miterlimit:10}.K{fill:#1ba1e2}]]></style><g class="I J"><path d="M51 41v20-2 13.63" class="G H"/><use xlink:href="#B" class="B C"/></g><ellipse cx="51" cy="21" rx="50" ry="20" fill="#e3c800" class="B"/><text x="50.5" y="24.5" fill="#000" class="D E F">Start</text><g class="I J"><path d="M51 224v32.63" class="G H"/><use xlink:href="#B" y="184" class="B C"/><path d="M101 189h46v174.5h-39.63" class="G H"/><path d="M102.12 363.5l7-3.5-1.75 3.5 1.75 3.5z" class="B C"/></g><path d="M51 154l50 35-50 35-50-35z" fill="#d80073" class="B"/><text x="50.5" y="192.5" fill="#fff" class="D E F">Exception</text><g class="I J"><path d="M51 308v20-7 13.63" class="G H"/><use xlink:href="#B" y="262" class="B C"/></g><rect x="1" y="263" width="100" height="45" rx="7" class="B K"/><text x="50.5" y="288.5" fill="#fff" class="D E F">catch</text><path d="M31.61 423h38.78c16.9 0 30.61 10.07 30.61 22.5S87.29 468 70.39 468H31.61C14.71 468 1 457.93 1 445.5S14.71 423 31.61 423z" fill="#e3c800" class="B"/><text x="50.5" y="448.5" fill="#000" class="D E F">End</text><text x="72.5" y="242.5" class="C D E F">Yes</text><text x="120.5" y="179.5" class="C D E F">No</text><g class="I J"><path d="M51 124v20-10 13.63" class="G H"/><use xlink:href="#B" y="75" class="B C"/></g><rect x="1" y="79" width="100" height="45" rx="7" class="B K"/><text x="50.5" y="104.5" fill="#fff" class="D E F">try</text><g class="I J"><path d="M51 386v20-3 13.63" class="G H"/><use xlink:href="#B" y="344" class="B C"/></g><rect x="1" y="341" width="100" height="45" rx="7" class="B K"/><text x="50.5" y="366.5" fill="#fff" class="D E F">finally</text><defs ><path id="B" d="M51 77.88l-3.5-7 3.5 1.75 3.5-1.75z"/></defs></svg>