<?xml version="1.0" encoding="UTF-8"?><svg xmlns="http://www.w3.org/2000/svg" xmlns:xlink="http://www.w3.org/1999/xlink" width="161" height="399" viewBox="-0.5 -0.5 161 399" ><style><![CDATA[.B{pointer-events:all}.C{fill:#b0b0b0}.D{font-family:Helvetica}.E{font-size:12px}.F{text-anchor:middle}.G{pointer-events:stroke}.H{stroke:#b0b0b0}.I{stroke-miterlimit:10}]]></style><g class="H I"><path d="M51 41v20-2 13.63" fill="none" class="G"/><use xlink:href="#B" class="B C"/></g><ellipse cx="51" cy="21" rx="50" ry="20" fill="#e3c800" class="B"/><text x="50.5" y="24.5" fill="#000" class="D E F">Start</text><g class="H I"><path d="M101 189h51v185.5h-44.63" fill="none" class="G"/><path d="M102.12 374.5l7-3.5-1.75 3.5 1.75 3.5z" class="B C"/><path d="M51 224v35.63" fill="none" class="G"/><use xlink:href="#B" y="187" class="B C"/></g><path d="M51 154l50 35-50 35-50-35z" fill="#d80073" class="B"/><text x="50.5" y="192.5" fill="#fff" class="D E F">Error</text><g class="H I"><path d="M51 311v34.63" fill="none" class="G"/><use xlink:href="#B" y="273" class="B C"/></g><rect x="1" y="266" width="100" height="45" rx="7" fill="#1ba1e2" class="B"/><text x="50.5" y="291.5" fill="#fff" class="D E F">catch</text><path d="M31.61 352h38.78c16.9 0 30.61 10.07 30.61 22.5S87.29 397 70.39 397H31.61C14.71 397 1 386.93 1 374.5S14.71 352 31.61 352z" fill="#e3c800" class="B"/><text x="50.5" y="377.5" fill="#000" class="D E F">End</text><text x="72.5" y="242.5" class="C D E F">Yes</text><text x="120.5" y="179.5" class="C D E F">No</text><g class="H I"><path d="M51 124v20-10 13.63" fill="none" class="G"/><use xlink:href="#B" y="75" class="B C"/></g><rect x="1" y="79" width="100" height="45" rx="7" fill="#1ba1e2" class="B"/><text x="50.5" y="104.5" fill="#fff" class="D E F">try</text><defs ><path id="B" d="M51 77.88l-3.5-7 3.5 1.75 3.5-1.75z"/></defs></svg>