<?xml version="1.0" encoding="UTF-8" standalone="no"?>
<!-- Created with Inkscape (http://www.inkscape.org/) -->

<svg
   width="101.07083mm"
   height="25.135416mm"
   viewBox="0 0 101.07083 25.135416"
   version="1.1"
   id="svg236"
   inkscape:version="1.1.2 (0a00cf5339, 2022-02-04)"
   sodipodi:docname="typeScript.svg"
   xmlns:inkscape="http://www.inkscape.org/namespaces/inkscape"
   xmlns:sodipodi="http://sodipodi.sourceforge.net/DTD/sodipodi-0.dtd"
   xmlns="http://www.w3.org/2000/svg"
   xmlns:svg="http://www.w3.org/2000/svg">
  <sodipodi:namedview
     id="namedview238"
     pagecolor="#ffffff"
     bordercolor="#cccccc"
     borderopacity="1"
     inkscape:pageshadow="0"
     inkscape:pageopacity="1"
     inkscape:pagecheckerboard="0"
     inkscape:document-units="mm"
     showgrid="false"
     inkscape:zoom="2.9790123"
     inkscape:cx="150.21757"
     inkscape:cy="60.25487"
     inkscape:window-width="2560"
     inkscape:window-height="1011"
     inkscape:window-x="0"
     inkscape:window-y="32"
     inkscape:window-maximized="1"
     inkscape:current-layer="layer1" />
  <defs
     id="defs233" />
  <g
     inkscape:label="Layer 1"
     inkscape:groupmode="layer"
     id="layer1"
     transform="translate(-58.937984,-112.30576)">
    <rect
       x="58.937984"
       y="112.30576"
       width="101.07083"
       height="25.135416"
       rx="2.6458333"
       fill="#3178c6"
       id="rect6"
       style="stroke-width:0.264583" />
    <path
       fill-rule="evenodd"
       clip-rule="evenodd"
       d="m 120.64754,131.28246 v -0.9435 c 0.86122,0.54557 1.73382,0.81809 2.61753,0.81809 0.93953,0 1.65258,-0.19341 2.13915,-0.58023 0.48657,-0.38682 0.72972,-0.92816 0.72972,-1.62401 0,-0.61225 -0.16351,-1.10067 -0.4908,-1.46526 -0.31538,-0.35164 -0.98584,-0.82603 -2.0111,-1.42346 l -0.11536,-0.0669 c -1.2192,-0.70697 -1.99099,-1.29831 -2.31536,-1.7743 -0.32438,-0.47572 -0.48657,-1.02552 -0.48657,-1.64888 0,-0.84614 0.32993,-1.56422 0.9898,-2.15424 0.65987,-0.59002 1.54094,-0.88503 2.64266,-0.88503 0.7157,0 1.43166,0.11986 2.14762,0.35904 v 0.86836 c -0.70485,-0.31723 -1.45706,-0.47598 -2.25689,-0.47598 -0.81651,0 -1.46368,0.20611 -1.94204,0.61806 -0.47811,0.41169 -0.71702,0.93504 -0.71702,1.56951 0,0.61225 0.16351,1.09934 0.49053,1.46129 0.32729,0.36169 1.03347,0.85434 2.11826,1.4777 1.12421,0.63474 1.87219,1.1983 2.24419,1.69095 0.37174,0.49239 0.55774,1.05887 0.55774,1.69889 0,0.91864 -0.32014,1.66714 -0.96043,2.24605 -0.64029,0.57891 -1.5449,0.86836 -2.71383,0.86836 -0.41381,0 -0.89059,-0.064 -1.43034,-0.19208 -0.53975,-0.12806 -0.95224,-0.27543 -1.23746,-0.44239 z m -29.815098,-9.8589 h 3.44011 v -1.68751 h -8.85878 v 1.68751 h 3.43165 v 10.29203 h 1.98702 z m 6.61114,11.66177 3.875618,-9.92663 h -1.962938 l -2.14763,6.23332 c -0.0508,0.19103 -0.0908,0.3466 -0.11985,0.46672 l -0.0312,0.13494 h -0.0418 c -0.0447,-0.19103 -0.0804,-0.34026 -0.10689,-0.44741 l -0.0442,-0.17092 -2.04682,-6.21665 h -2.15609 l 3.41445,8.53942 -0.57891,1.40388 c -0.35798,0.71306 -0.90038,1.06945 -1.62745,1.06945 -0.25162,0 -0.53129,-0.0503 -0.839,-0.15028 v 1.61237 c 0.27411,0.0725 0.61516,0.10874 1.02341,0.10874 1.45415,0 2.58392,-0.88556 3.38931,-2.65695 z m 7.061468,-2.63763 h -0.0333 v 5.19404 h -1.94442 V 123.1579 h 1.94442 v 1.5031 h 0.0333 c 0.6649,-1.13559 1.63698,-1.70339 2.9165,-1.70339 1.08955,0 1.9386,0.38127 2.54767,1.1438 0.60907,0.76279 0.91361,1.78699 0.91361,3.07313 0,1.42505 -0.34369,2.5662 -1.03082,3.42345 -0.68738,0.85751 -1.62586,1.28614 -2.81596,1.28614 -1.09511,0 -1.9386,-0.4789 -2.531,-1.43643 z m -0.0651,-2.26668 v -1.05463 c 0,-0.73104 0.21061,-1.34012 0.63209,-1.82721 0.42148,-0.48737 0.97843,-0.73105 1.67058,-0.73105 0.65299,0 1.17078,0.2368 1.5531,0.71014 0.38233,0.47361 0.57362,1.12819 0.57362,1.96427 0,0.99669 -0.20505,1.77324 -0.61542,2.32966 -0.41037,0.55668 -0.97552,0.83476 -1.69545,0.83476 -0.6141,0 -1.12078,-0.2159 -1.51977,-0.6477 -0.39925,-0.43207 -0.59875,-0.95806 -0.59875,-1.57824 z m 15.20084,-0.21722 h -5.79887 c 0.022,0.7911 0.26432,1.40123 0.72681,1.83038 0.46249,0.42889 1.09802,0.64347 1.90685,0.64347 0.90832,0 1.74175,-0.27305 2.50058,-0.81915 v 1.56289 c -0.77549,0.49054 -1.79996,0.73554 -3.07393,0.73554 -1.25174,0 -2.23361,-0.38867 -2.94534,-1.16575 -0.71173,-0.77735 -1.0676,-1.87087 -1.0676,-3.28057 0,-1.33165 0.39185,-2.4167 1.17581,-3.25517 0.7837,-0.83873 1.7571,-1.25783 2.92021,-1.25783 1.16311,0 2.06322,0.37598 2.70007,1.12819 0.63712,0.75221 0.95541,1.79678 0.95541,3.13425 z m -2.30055,-3.01387 c 0.32015,0.38867 0.48313,0.93265 0.48869,1.63168 h -3.92616 c 0.0884,-0.66013 0.32438,-1.19406 0.70829,-1.60231 0.38365,-0.40826 0.8517,-0.61252 1.40388,-0.61252 0.5633,0 1.00489,0.19447 1.3253,0.58315 z m 14.57272,6.967 c 0.88715,0 1.651,-0.19473 2.29103,-0.58393 v -0.80089 c -0.64003,0.45614 -1.3925,0.68421 -2.25743,0.68421 -0.94324,0 -1.70259,-0.33655 -2.27832,-1.00939 -0.57547,-0.6731 -0.86334,-1.56289 -0.86334,-2.66964 0,-1.14565 0.31459,-2.07857 0.9435,-2.79877 0.62892,-0.72019 1.4486,-1.08029 2.45931,-1.08029 0.7358,0 1.41234,0.18918 2.03014,0.56727 v -0.86757 c -0.6178,-0.26697 -1.25518,-0.40032 -1.91214,-0.40032 -1.26894,0 -2.30796,0.43233 -3.11653,1.29699 -0.80856,0.86492 -1.21285,1.97591 -1.21285,3.33269 0,1.29038 0.35931,2.33442 1.07818,3.13267 0.71861,0.79798 1.66476,1.19697 2.83845,1.19697 z m 7.35806,-7.98618 c -0.25558,-0.18468 -0.55562,-0.27702 -0.90037,-0.27702 -0.67231,0 -1.2364,0.34952 -1.69228,1.04881 -0.45588,0.69903 -0.68368,1.69175 -0.68368,2.97789 v 4.03516 h -0.75036 v -8.59023 h 0.75036 v 1.90421 h 0.0333 c 0.19446,-0.65432 0.50297,-1.16338 0.92551,-1.52691 0.42227,-0.36328 0.91149,-0.54505 1.46711,-0.54505 0.31697,0 0.60034,0.0503 0.85037,0.15082 z m 1.20227,-3.07525 c 0.13018,0.12621 0.28046,0.18944 0.45032,0.18944 0.18124,0 0.33708,-0.0661 0.46752,-0.19817 0.13017,-0.13203 0.19526,-0.28972 0.19526,-0.47361 0,-0.19499 -0.0664,-0.35004 -0.19949,-0.46487 -0.13335,-0.11483 -0.28761,-0.17224 -0.46329,-0.17224 -0.16431,0 -0.313,0.059 -0.44609,0.17647 -0.13308,0.11774 -0.19976,0.27147 -0.19976,0.46064 0,0.19527 0.0651,0.35587 0.19553,0.48234 z m 0.006,10.86009 v -8.55689 h 0.80539 v 8.55689 z m 3.38482,-1.52321 h 0.0333 c 0.61172,1.15173 1.55734,1.72747 2.83634,1.72747 1.14564,0 2.06745,-0.4408 2.76542,-1.32266 0.69797,-0.88185 1.04696,-2.03755 1.04696,-3.46736 0,-1.28508 -0.30454,-2.30161 -0.91334,-3.04985 -0.60907,-0.74825 -1.45574,-1.12237 -2.54027,-1.12237 -0.68395,0 -1.31101,0.17092 -1.88119,0.51303 -0.56991,0.34211 -1.00806,0.82762 -1.31392,1.45627 h -0.0333 v -1.7608 h -0.7673 v 12.47563 h 0.7673 z m 0.0378,-3.18003 v 1.07501 c 0,0.85539 0.27252,1.59014 0.8173,2.20397 0.54478,0.6141 1.261,0.92102 2.14842,0.92102 0.88159,0 1.59781,-0.37359 2.14815,-1.12104 0.5506,-0.74718 0.82576,-1.72905 0.82576,-2.94587 0,-1.06654 -0.25294,-1.91373 -0.75829,-2.54159 -0.50562,-0.62785 -1.17952,-0.94165 -2.02195,-0.94165 -1.00542,0 -1.78329,0.33337 -2.33362,0.99986 -0.55034,0.66675 -0.82577,1.45018 -0.82577,2.35029 z m 10.35632,4.90458 c 0.34846,0 0.72179,-0.0944 1.11998,-0.28336 v -0.7165 c -0.36512,0.20532 -0.70538,0.30824 -1.02049,0.30824 -0.44265,0 -0.75645,-0.13202 -0.94166,-0.39581 -0.18547,-0.26379 -0.27807,-0.6903 -0.27807,-1.279 v -5.63298 h 2.24022 v -0.70009 h -2.24022 v -2.47464 c -0.12171,0.0444 -0.24871,0.086 -0.38153,0.12488 -0.13282,0.0444 -0.26009,0.0889 -0.3818,0.13335 v 2.21641 h -1.52664 v 0.70009 h 1.52664 v 5.73299 c 0,1.51077 0.62786,2.26642 1.88357,2.26642 z"
       fill="#ffffff"
       id="path8"
       style="stroke-width:0.264583" />
  </g>
</svg>
